HIERARCHY
ROOT Hips
{
	OFFSET 0.00000 0.00000 0.00000
	CHANNELS 6 Xposition Yposition Zposition Zrotation Yrotation Xrotation 
	JOINT LHipJoint
	{
		OFFSET 0 0 0
		CHANNELS 3 Zrotation Yrotation Xrotation
		JOINT LeftUpLeg
		{
			OFFSET 3.13874 -1.57224 1.49786
			CHANNELS 3 Zrotation Yrotation Xrotation
			JOINT LeftLeg
			{
				OFFSET 2.10955 -5.79594 0.00000
				CHANNELS 3 Zrotation Yrotation Xrotation
				JOINT LeftFoot
				{
					OFFSET 2.41843 -6.64458 0.00000
					CHANNELS 3 Zrotation Yrotation Xrotation
					JOINT LeftToeBase
					{
						OFFSET 0.04713 -0.12948 1.66229
						CHANNELS 3 Zrotation Yrotation Xrotation
						End Site
						{
							OFFSET 0.00000 -0.00000 0.85167
						}
					}
				}
			}
		}
	}
	JOINT RHipJoint
	{
		OFFSET 0 0 0
		CHANNELS 3 Zrotation Yrotation Xrotation
		JOINT RightUpLeg
		{
			OFFSET -3.13988 -1.57224 1.49786
			CHANNELS 3 Zrotation Yrotation Xrotation
			JOINT RightLeg
			{
				OFFSET -2.15006 -5.90725 0.00000
				CHANNELS 3 Zrotation Yrotation Xrotation
				JOINT RightFoot
				{
					OFFSET -2.34496 -6.44273 0.00000
					CHANNELS 3 Zrotation Yrotation Xrotation
					JOINT RightToeBase
					{
						OFFSET -0.08699 -0.23900 1.55223
						CHANNELS 3 Zrotation Yrotation Xrotation
						End Site
						{
							OFFSET -0.00000 -0.00000 0.80281
						}
					}
				}
			}
		}
	}
	JOINT LowerBack
	{
		OFFSET 0 0 0
		CHANNELS 3 Zrotation Yrotation Xrotation
		JOINT Spine
		{
			OFFSET 0.01292 1.96517 -0.16495
			CHANNELS 3 Zrotation Yrotation Xrotation
			JOINT Spine1
			{
				OFFSET 0.02122 1.88666 0.19706
				CHANNELS 3 Zrotation Yrotation Xrotation
				JOINT Neck
				{
					OFFSET 0 0 0
					CHANNELS 3 Zrotation Yrotation Xrotation
					JOINT Neck1
					{
						OFFSET -0.01683 1.81591 0.07903
						CHANNELS 3 Zrotation Yrotation Xrotation
						JOINT Head
						{
							OFFSET 0.00815 1.74013 -0.47700
							CHANNELS 3 Zrotation Yrotation Xrotation
							End Site
							{
								OFFSET -0.00204 1.83225 -0.16933
							}
						}
					}
				}
				JOINT LeftShoulder
				{
					OFFSET 0 0 0
					CHANNELS 3 Zrotation Yrotation Xrotation
					JOINT LeftArm
					{
						OFFSET 3.38482 1.41533 0.19802
						CHANNELS 3 Zrotation Yrotation Xrotation
						JOINT LeftForeArm
						{
							OFFSET 4.32712 -0.00000 0.00000
							CHANNELS 3 Zrotation Yrotation Xrotation
							JOINT LeftHand
							{
								OFFSET 3.28587 -0.00000 -0.00000
								CHANNELS 3 Zrotation Yrotation Xrotation
								JOINT LeftFingerBase
								{
									OFFSET 0 0 0
									CHANNELS 3 Zrotation Yrotation Xrotation
									JOINT LeftHandIndex1
									{
										OFFSET 0.43316 -0.00000 -0.00000
										CHANNELS 3 Zrotation Yrotation Xrotation
										End Site
										{
											OFFSET 0.34922 -0.00000 -0.00000
										}
									}
								}
								JOINT LThumb
								{
									OFFSET 0 0 0
									CHANNELS 3 Zrotation Yrotation Xrotation
									End Site
									{
										OFFSET 0.35456 -0.00000 0.35456
									}
								}
							}
						}
					}
				}
				JOINT RightShoulder
				{
					OFFSET 0 0 0
					CHANNELS 3 Zrotation Yrotation Xrotation
					JOINT RightArm
					{
						OFFSET -3.09725 1.62858 -0.14144
						CHANNELS 3 Zrotation Yrotation Xrotation
						JOINT RightForeArm
						{
							OFFSET -4.29104 -0.00000 0.00000
							CHANNELS 3 Zrotation Yrotation Xrotation
							JOINT RightHand
							{
								OFFSET -3.22720 -0.00000 -0.00000
								CHANNELS 3 Zrotation Yrotation Xrotation
								JOINT RightFingerBase
								{
									OFFSET 0 0 0
									CHANNELS 3 Zrotation Yrotation Xrotation
									JOINT RightHandIndex1
									{
										OFFSET -0.54362 -0.00000 -0.00000
										CHANNELS 3 Zrotation Yrotation Xrotation
										End Site
										{
											OFFSET -0.43828 -0.00000 -0.00000
										}
									}
								}
								JOINT RThumb
								{
									OFFSET 0 0 0
									CHANNELS 3 Zrotation Yrotation Xrotation
									End Site
									{
										OFFSET -0.44497 -0.00000 0.44497
									}
								}
							}
						}
					}
				}
			}
		}
	}
}
MOTION
Frames: 10
Frame Time: 0.0588235
0.00 0.00 0.00 0 0 0 0 0 0 -21 0 0 0 0 0 0 0 0 0 0 0 0 0 0 21 0 0 0 0 0 0 0 0 0 0 0 0 0 0 0 0 0 0 0 0 0 0 -16 0 0 21 0 0 11 0 0 0 -8 0 0 0 0 0 0 0 0 0 0 0 0 0 0 0 0 0 0 0 0 8 0 0 0 0 0 0 0 0 0 0 0 0 0 0 0 0 0
0.00 0.00 0.00 174.9220 -84.9019 -164.5380 0.0000 0.0000 0.0000 -33.3280 -24.1943 5.1597 0.0744 1.7596 4.8418 2.9758 -12.3602 -31.1655 0.8412 -5.8502 -16.3503 0.0000 0.0000 0.0000 19.0029 26.2968 -10.1995 -0.0199 -0.9100 2.5012 0.3443 -11.9932 -10.9128 -4.2874 12.5333 -37.6458 -3.6289 1.6614 7.4075 1.3109 1.6478 -9.6216 3.1949 1.1648 -15.0028 -0.5670 -0.9596 -20.8911 -1.3001 -1.2136 29.1173 -0.6645 -0.9526 13.2793 -0.0000 -0.0000 0.0000 -78.9592 17.0730 4.0825 11.8605 -19.5951 -2.0553 -0.0000 -0.0000 16.8703 33.5254 31.9351 19.3129 -7.1250 0.0000 -0.0000 2.3979 66.7499 1.2569 -0.0000 -0.0000 0.0000 68.1286 -13.9858 47.9396 -18.9038 29.2990 -4.9837 0.0000 -0.0000 -13.4252 -28.2742 -21.2497 11.0309 7.1250 -0.0000 -0.0000 0.4237 -53.8034 -0.0917
0.00 0.00 0.00 186.4480 -84.3825 -178.7130 0.0000 0.0000 0.0000 -40.6461 -30.0607 25.7153 0.0197 -0.9072 -2.4934 6.5160 -12.1317 -47.0790 0.7125 -5.3945 -15.0373 0.0000 0.0000 0.0000 28.0383 27.0584 8.1461 -0.3248 3.6632 -10.1311 1.3807 -20.4113 -10.5231 -1.2992 7.2213 -20.3727 -2.2631 1.7965 4.4276 1.1195 1.9472 -10.6199 2.2163 1.1015 -14.2487 -0.9700 -1.2431 -17.2776 -0.4169 -2.1025 31.1834 -0.4083 -1.3757 13.3919 -0.0000 -0.0000 0.0000 -77.6851 18.4168 6.8171 14.3897 -23.2891 -2.9805 -0.0000 -0.0000 11.9885 39.0352 31.1455 22.7511 -7.1250 0.0000 -0.0000 10.8760 67.5678 5.9309 -0.0000 -0.0000 0.0000 69.3730 -14.8040 44.1459 -16.4624 26.1436 -3.8475 0.0000 -0.0000 -12.8789 -27.9967 -22.5142 11.5064 7.1250 -0.0000 -0.0000 1.0344 -55.1240 -0.2572
0.00 0.00 0.00 141.1100 -83.2248 -130.2860 0.0000 0.0000 0.0000 -39.1483 -23.0504 14.7998 0.0312 -1.1395 -3.1327 4.9971 -7.4877 -41.1459 3.8085 -11.9011 -35.3828 0.0000 0.0000 0.0000 14.2402 12.1376 -24.9025 -3.4612 -11.4067 33.6641 -3.0965 -8.4761 -36.9779 -0.2768 3.3840 -9.3497 -6.5304 1.7550 8.5918 0.6531 1.1015 -10.5139 4.1940 1.2445 -16.9669 2.0637 0.0201 -17.5041 -4.2169 0.2780 23.5024 -1.8324 -0.3077 10.4312 0.0000 0.0000 0.0000 -77.6835 -15.5606 32.5808 24.0792 -35.2479 -7.7522 -0.0000 0.0000 -16.2470 39.9256 31.8948 23.8540 -7.1250 0.0000 -0.0000 12.1855 68.6787 6.9593 0.0000 0.0000 0.0000 65.0441 6.8684 48.8031 -29.2596 40.2502 -10.9280 0.0000 -0.0000 -35.9005 -27.6157 -24.6282 12.2984 7.1250 -0.0000 -0.0000 2.0796 -57.3234 -0.6279
0.00 0.00 0.00 87.7128 -85.0626 -78.5352 0.0000 0.0000 0.0000 -37.0131 -15.6899 6.9438 0.3237 3.6568 10.1131 3.4278 -12.5767 -33.5124 4.9234 -13.2970 -40.4906 0.0000 0.0000 0.0000 13.5917 -3.9372 -6.3868 -1.2702 -7.1433 20.1405 -2.7994 -16.9692 -41.0483 -0.2228 3.0382 -8.3851 -2.5345 1.0780 7.7143 2.1772 1.0245 -11.1347 3.7242 0.8435 -17.0217 -0.8220 0.0208 -15.9074 -6.7708 1.6776 24.4291 -2.0843 -0.2924 10.5380 -0.0000 -0.0000 0.0000 -84.1955 -24.3980 39.1715 26.6966 -37.8884 -9.3122 -0.0000 0.0000 -17.0674 37.5824 27.4113 19.5099 -7.1250 0.0000 -0.0000 9.3556 62.9439 4.0949 -0.0000 -0.0000 0.0000 63.1467 15.9875 45.9247 -29.7501 40.6782 -11.2464 0.0000 -0.0000 -48.0223 -26.5567 -24.4735 11.6984 7.1250 -0.0000 -0.0000 3.1963 -56.9208 -0.9344
0.00 0.00 0.00 51.5322 -85.6516 -43.0805 0.0000 0.0000 0.0000 -31.9175 -10.8857 -5.9416 2.7262 10.2380 29.7509 1.4501 -24.1135 -25.7123 2.7903 -10.3477 -30.1101 0.0000 0.0000 0.0000 18.1982 -0.2934 7.1134 -0.1041 -2.0801 5.7269 -6.3267 -7.7255 -50.4215 -0.0120 -0.7085 1.9472 1.0665 1.4938 8.2920 2.4667 2.2434 -10.9109 1.7467 0.9820 -17.0609 -2.1086 -0.9311 -16.9257 -6.9222 0.8004 24.6791 -2.0598 -0.8522 10.8063 -0.0000 -0.0000 0.0000 -85.6529 -29.0460 43.9719 26.4342 -37.6343 -9.1515 -0.0000 0.0000 -21.5844 38.0410 27.8305 20.0666 -7.1250 0.0000 -0.0000 9.9274 63.5496 4.4886 -0.0000 -0.0000 0.0000 63.3543 20.2730 41.6010 -28.0128 39.1280 -10.1317 0.0000 -0.0000 -55.5746 -26.2681 -25.6585 12.0629 7.1250 -0.0000 -0.0000 3.9494 -58.1140 -1.2685
0.00 0.00 0.00 -11.7299 -85.2897 19.9207 0.0000 0.0000 0.0000 -25.6529 -9.0955 -23.5113 8.6197 16.5566 54.7652 3.1240 -15.8907 -32.2277 5.2414 -13.6506 -41.8554 0.0000 0.0000 0.0000 21.8887 -6.6883 1.4517 -0.6261 -5.0635 14.0896 -5.6768 -3.4140 -46.4294 -0.0855 1.8863 -5.1916 7.1923 1.3507 10.7695 4.3021 3.5085 -9.7115 0.0704 0.9740 -17.0547 -4.2429 -1.6747 -17.3295 -7.1714 0.2200 19.3300 -1.7406 -1.1013 8.9793 0.0000 -0.0000 0.0000 -87.4076 -35.8225 43.9587 28.6080 -39.6699 -10.5095 -0.0000 0.0000 -32.5703 38.1948 31.6743 22.4468 -7.1250 0.0000 -0.0000 9.4417 67.8935 5.2126 0.0000 -0.0000 0.0000 63.5198 30.1335 39.7843 -27.1027 38.2770 -9.5627 0.0000 -0.0000 -61.6785 -28.6122 -25.4638 13.1990 7.1250 -0.0000 -0.0000 1.2370 -58.4528 -0.4070
0.00 0.00 0.00 55.2830 -88.0200 -42.2927 0.0000 0.0000 0.0000 -24.1328 -17.0723 -54.1895 7.6437 15.8508 51.2688 0.8928 -9.0385 -17.0711 6.1765 -14.5973 -45.6862 0.0000 0.0000 0.0000 19.8172 -2.3655 -0.1901 -0.9482 -6.2013 17.3696 -6.1939 -4.5177 -48.8151 -0.3916 4.0184 -11.1284 1.6363 2.1685 15.2982 4.4631 3.9089 -8.5395 3.1281 1.8755 -18.9151 -2.4008 -0.3094 -21.0607 -7.3418 1.6163 14.6827 -1.8792 -0.1980 8.0827 0.0000 -0.0000 0.0000 -84.2964 -36.1648 45.2610 50.1906 -53.0721 -26.3265 -0.0000 0.0000 -37.1622 49.3766 35.1188 33.8469 -7.1250 0.0000 -0.0000 33.0125 75.1313 24.0106 0.0000 -0.0000 0.0000 67.8213 41.7024 43.0003 -39.4961 47.7685 -18.0652 0.0000 -0.0000 -66.5184 -31.6906 -23.0251 13.5759 7.1250 -0.0000 -0.0000 -2.9055 -56.4966 0.8194
0.00 0.00 0.00 4.8896 -89.4284 9.8828 0.0000 0.0000 0.0000 -14.9394 -24.5675 -54.5662 3.0266 10.7380 31.4013 -0.1930 8.1751 -5.7289 6.1405 -14.5631 -45.5428 0.0000 0.0000 0.0000 20.9055 -2.8710 1.5986 -0.7612 -5.5718 15.5470 -5.8664 -7.0531 -48.4355 -1.1608 6.8399 -19.2419 3.2952 2.2139 15.3943 4.4063 4.3546 -8.7614 1.9925 1.8419 -19.1554 -1.9455 -0.2184 -21.1895 -6.9934 1.4948 13.7804 -1.8397 -0.1585 7.7919 -0.0000 -0.0000 0.0000 -85.4644 -39.5004 47.0563 56.3697 -55.2623 -31.3386 -0.0000 0.0000 -32.5462 52.7593 35.3570 37.2800 -7.1250 0.0000 -0.0000 43.4731 76.1830 33.0451 -0.0000 -0.0000 0.0000 69.9394 44.9666 44.2745 -44.5444 50.5433 -21.8864 0.0000 -0.0000 -65.2861 -32.3231 -25.3229 15.1435 7.1250 -0.0000 -0.0000 -3.1178 -59.1996 1.0823
0.00 0.00 0.00 18.8667 -98.9631 -3.7312 0.0000 0.0000 0.0000 -11.2343 -22.4903 -53.8634 4.5074 12.8066 38.6487 0.3886 0.4558 -11.9501 1.6297 -8.0480 -22.8601 0.0000 0.0000 0.0000 17.9661 -0.4289 9.6590 -0.8399 -5.8460 16.3382 -4.4445 -7.8717 -42.9780 -2.0879 9.0468 -25.9419 3.1606 4.1026 16.8606 3.5404 6.9536 -9.7290 -0.1035 2.7908 -20.7942 -0.5223 0.8465 -23.3934 -4.6116 2.1945 14.1751 -1.1847 0.4835 8.2763 0.0000 -0.0000 0.0000 -88.8864 -43.7751 51.4022 82.5040 -59.7866 -53.5129 -0.0000 0.0000 -9.9961 60.7804 35.3605 45.9761 -7.1250 0.0000 -0.0000 73.2761 76.7052 59.7936 0.0000 -0.0000 0.0000 78.9422 47.5463 51.4749 -72.0848 58.7518 -44.5500 0.0000 -0.0000 -68.4106 -39.5179 -23.8159 18.4218 7.1250 -0.0000 -0.0000 -12.1435 -59.3442 4.2938
